<svg viewBox="0 0 846 705" fill="none" xmlns="http://www.w3.org/2000/svg">
<g id="code-inspection 1" clip-path="url(#clip0)">
<g id="Group 2">
<g id="man">
<path id="Path 4" d="M703.586 664.77L702.122 684.295L672.349 674.533L684.549 659.89L703.586 664.77Z" fill="#FEB8B8"/>
<path id="Path 5" d="M811.945 658.425L810.478 677.46L793.883 679.901L784.121 670.627L795.347 652.567L811.945 658.425Z" fill="#FEB8B8"/>
<path id="Path 6" d="M824.147 415.352C824.147 415.352 837.326 430.971 820.73 454.888C804.134 478.805 784.123 502.234 784.123 502.234L747.023 572.52C747.023 572.52 727.987 641.342 723.594 643.294C719.201 645.246 716.761 637.437 719.201 645.734C721.641 654.031 720.177 653.544 718.225 654.034C716.273 654.524 710.904 653.546 712.856 656.963C714.808 660.38 716.273 660.38 712.368 660.38C708.463 660.38 706.999 657.94 706.999 661.356C706.999 664.772 703.582 672.582 703.582 672.582C703.582 672.582 679.665 665.749 678.689 662.82C677.713 659.891 685.034 658.427 683.57 655.499C682.106 652.571 681.618 652.57 681.618 648.178C681.618 643.786 684.547 642.809 684.547 642.809C684.547 642.809 686.987 641.833 686.011 639.88C685.035 637.927 681.13 638.904 686.011 636.463C690.892 634.022 710.906 559.342 710.906 559.342C710.906 559.342 710.906 522.242 717.251 510.042C723.596 497.842 718.715 410.958 733.851 409.982C748.987 409.006 824.147 415.352 824.147 415.352Z" fill="#2F2E41"/>
<path id="Path 7" d="M819.266 443.173L816.337 518.828C816.337 518.828 830.98 592.043 826.099 614.495C821.218 636.947 824.635 634.019 821.706 637.924C818.777 641.829 816.337 639.876 818.777 643.293C821.217 646.71 822.677 647.686 818.777 651.593C814.877 655.5 812.92 664.772 812.92 664.772L788.027 662.332C788.027 662.332 794.372 651.106 791.927 648.665C789.482 646.224 783.141 650.129 788.027 644.765C792.913 639.401 795.837 641.836 792.908 639.396C789.979 636.956 785.587 637.932 789.491 634.027C793.395 630.122 797.791 630.127 793.884 628.658C789.977 627.189 785.584 628.658 787.539 625.729C789.494 622.8 791.932 619.384 791.932 619.384L786.075 574.967C786.075 574.967 779.242 560.324 781.194 553.979C783.146 547.634 772.894 495.407 772.894 495.407L819.266 443.173Z" fill="#2F2E41"/>
<path id="Path 8" d="M808.53 668.186C808.53 668.186 813.411 663.305 814.875 666.234C816.339 669.163 827.075 695.52 820.732 697.472C814.389 699.424 805.113 701.372 800.232 699.912C795.351 698.452 785.101 691.612 772.899 691.612C760.697 691.612 750.447 686.243 750.447 684.291C750.447 682.339 748.495 670.624 757.768 670.624C767.041 670.624 784.125 659.886 784.125 659.886C784.125 659.886 788.025 652.076 789.982 652.565C791.939 653.054 790.47 668.672 790.47 668.672C790.47 668.672 801.694 679.412 808.53 668.186Z" fill="#2F2E41"/>
<path id="Path 9" d="M700.17 674.531C700.17 674.531 704.563 663.793 708.956 666.231C713.349 668.669 710.42 698.931 710.42 698.931C710.42 698.931 706.52 705.276 695.289 703.812C684.058 702.348 654.289 698.931 647.455 700.395C640.621 701.859 622.074 693.562 626.955 682.335C626.955 682.335 629.395 675.99 641.11 676.478C652.825 676.966 674.301 662.811 674.301 662.811C674.301 662.811 677.718 653.049 678.694 654.025C679.67 655.001 680.646 672.085 680.646 672.085C680.646 672.085 693.337 680.388 700.17 674.531Z" fill="#2F2E41"/>
<path id="Ellipse 2" d="M764.111 224.506C779.746 224.506 792.421 211.831 792.421 196.196C792.421 180.561 779.746 167.886 764.111 167.886C748.476 167.886 735.801 180.561 735.801 196.196C735.801 211.831 748.476 224.506 764.111 224.506Z" fill="#FEB8B8"/>
<path id="Path 10" d="M786.075 198.148C786.075 198.148 801.206 228.41 806.575 231.339C811.944 234.268 769.968 252.328 769.968 252.328C769.968 252.328 763.135 222.554 754.837 216.209C746.539 209.864 786.075 198.148 786.075 198.148Z" fill="#FEB8B8"/>
<path id="Path 11" d="M742.635 445.613L740.683 464.161C740.683 464.161 719.695 456.84 726.528 443.173L742.635 445.613Z" fill="#FEB8B8"/>
<path id="Path 12" d="M734.34 417.792C748.983 433.407 826.587 420.228 826.587 420.228L825.615 409.003L835.377 398.76L832.45 350.923C832.45 350.923 841.23 328.473 842.693 294.306C842.782 292.206 842.655 290.102 842.315 288.028C837.283 257.421 787.445 237.708 786.076 238.171C785.387 238.398 778.051 242.221 770.395 246.243C761.606 250.86 752.401 255.743 752.401 255.743C740.685 260.143 742.639 330.43 738.731 336.774C734.823 343.118 738.731 365.074 738.731 365.074L734.341 386.061C734.341 386.061 719.693 402.177 734.34 417.792Z" fill="#F0F0F0"/>
<path id="Path 13" opacity="0.1" d="M781.645 262.84C781.645 262.84 795.312 303.84 792.383 331.662C789.454 359.484 757.728 439.044 757.728 439.044L746.995 444.901V458.567L739.442 438.109L760.212 394.681C760.212 394.681 734.295 244.781 781.645 262.84Z" fill="black"/>
<path id="Path 14" opacity="0.1" d="M768.827 250.538C782.988 242.73 804.466 263.238 826.917 285.195C834.98 293.078 839.643 292.285 842.317 288.027C837.285 257.42 787.447 237.707 786.078 238.17C785.389 238.397 778.053 242.22 770.397 246.242L768.827 250.538Z" fill="black"/>
<path id="Path 15" d="M768.834 246.765L774.691 230.658C774.691 230.658 814.715 211.622 841.072 230.658L845.465 257.991C845.465 257.991 849.365 303.384 826.917 281.42C804.469 259.456 782.987 238.955 768.834 246.765Z" fill="#F0F0F0"/>
<path id="Path 16" d="M780.219 256.232C780.219 256.232 793.886 297.232 790.957 325.054C788.028 352.876 756.302 432.436 756.302 432.436L745.564 438.297V451.964L723.112 445.619L727.993 429.512C727.993 429.512 720.183 419.75 725.553 416.821C730.923 413.892 729.946 397.785 729.946 397.785C729.946 397.785 732.873 238.172 780.219 256.232Z" fill="#F0F0F0"/>
<path id="Path 17" d="M789.349 208.047C788.887 205.859 788.949 203.505 787.901 201.53C786.328 198.569 782.713 197.33 779.372 197.038C775.107 196.667 770.81 197.405 766.539 197.113C762.268 196.821 757.706 195.193 755.58 191.478C754.732 189.996 754.314 188.251 753.189 186.966C750.848 184.292 746.581 184.706 743.217 185.852C739.853 186.998 736.344 188.672 732.905 187.776C730.013 179.685 733.574 170.352 739.733 164.361C745.892 158.37 754.198 155.146 762.448 152.743C773.329 149.573 785.574 147.7 795.578 153.025C810.085 160.746 815.204 181.183 813.866 196.415C813.36 202.173 812.533 208.693 807.878 212.58C801.056 218.278 791.409 217.789 789.349 208.047Z" fill="#2F2E41"/>
</g>
<g id="screen">
<path id="Rectangle 1" d="M611.723 0.346985H0.262024V391.954H611.723V0.346985Z" fill="#E6E6E6"/>
<path id="Rectangle 2" d="M596.238 49.464H19.746V368.786H596.238V49.464Z" fill="white"/>
<path id="Rectangle 3" d="M611.461 0H0V25.977H611.461V0Z" fill="#75DC75"/>
<path id="Ellipse 3" d="M19.305 18.096C21.9643 18.096 24.12 15.9403 24.12 13.281C24.12 10.6218 21.9643 8.466 19.305 8.466C16.6458 8.466 14.49 10.6218 14.49 13.281C14.49 15.9403 16.6458 18.096 19.305 18.096Z" fill="white"/>
<path id="Ellipse 4" d="M37.58 18.096C40.2393 18.096 42.395 15.9403 42.395 13.281C42.395 10.6218 40.2393 8.466 37.58 8.466C34.9208 8.466 32.765 10.6218 32.765 13.281C32.765 15.9403 34.9208 18.096 37.58 18.096Z" fill="white"/>
<path id="Ellipse 5" d="M55.855 18.096C58.5143 18.096 60.67 15.9403 60.67 13.281C60.67 10.6218 58.5143 8.466 55.855 8.466C53.1958 8.466 51.04 10.6218 51.04 13.281C51.04 15.9403 53.1958 18.096 55.855 18.096Z" fill="white"/>
<path id="Path 37" d="M120.605 94.221L82.472 131.878L120.605 169.534L129.185 160.954L100.35 132.115L129.426 103.039L120.605 94.221Z" fill="#75DC75"/>
<path id="Path 38" d="M151.85 94.221L189.982 131.878L151.85 169.534L143.27 160.954L172.107 132.116L143.029 103.039L151.85 94.221Z" fill="#75DC75"/>
<path id="Path 65" d="M275.194 103.671C272.075 103.671 269.547 105.465 269.547 107.677C269.547 109.889 272.075 111.683 275.194 111.683H541.408C544.527 111.683 547.055 109.889 547.055 107.677C547.055 105.465 544.527 103.671 541.408 103.671H275.194Z" fill="#E6E6E6"/>
<path id="Path 78" d="M538.761 323.15H90.923C86.345 323.15 82.635 320.507 82.63 317.25V238.208C82.635 234.951 86.345 232.308 90.923 232.308H538.761C543.339 232.308 547.049 234.951 547.054 238.208V317.249C547.05 320.506 543.339 323.146 538.761 323.15ZM90.923 234.666C88.176 234.666 85.95 236.252 85.947 238.206V317.247C85.947 319.201 88.176 320.785 90.923 320.787H538.761C541.508 320.787 543.734 319.201 543.737 317.247V238.208C543.737 236.254 541.508 234.67 538.761 234.668L90.923 234.666Z" fill="#E6E6E6"/>
<path id="Ellipse 13" d="M137.04 297.731C148.106 297.731 157.076 288.761 157.076 277.695C157.076 266.629 148.106 257.659 137.04 257.659C125.974 257.659 117.004 266.629 117.004 277.695C117.004 288.761 125.974 297.731 137.04 297.731Z" fill="#E6E6E6"/>
<path id="Path 79" d="M193.55 261.671C192.488 261.67 191.468 262.09 190.716 262.841C189.964 263.591 189.54 264.609 189.539 265.672C189.537 266.734 189.958 267.754 190.708 268.506C191.459 269.258 192.477 269.682 193.54 269.683H382.411C383.473 269.683 384.492 269.261 385.244 268.51C385.995 267.758 386.417 266.739 386.417 265.677C386.417 264.615 385.995 263.596 385.244 262.844C384.492 262.093 383.473 261.671 382.411 261.671H193.55Z" fill="#75DC75"/>
<path id="Path 80" d="M193.55 285.708C193.024 285.707 192.503 285.81 192.017 286.011C191.53 286.212 191.088 286.506 190.716 286.878C189.964 287.628 189.54 288.646 189.539 289.709C189.537 290.771 189.958 291.791 190.708 292.543C191.459 293.295 192.477 293.719 193.54 293.72H274.816C275.878 293.721 276.898 293.301 277.65 292.55C278.402 291.8 278.826 290.782 278.827 289.719C278.829 288.657 278.408 287.637 277.658 286.885C276.907 286.133 275.889 285.709 274.826 285.708H193.55Z" fill="#75DC75"/>
<path id="Path 81" d="M273.25 127.671C272.243 127.752 271.304 128.209 270.619 128.952C269.934 129.694 269.554 130.667 269.554 131.677C269.554 132.687 269.934 133.66 270.619 134.402C271.304 135.145 272.243 135.602 273.25 135.683H447.72C448.727 135.602 449.666 135.145 450.351 134.402C451.036 133.66 451.416 132.687 451.416 131.677C451.416 130.667 451.036 129.694 450.351 128.952C449.666 128.209 448.727 127.752 447.72 127.671H273.25Z" fill="#E6E6E6"/>
<path id="Path 82" d="M274.398 151.671C271.719 151.671 269.547 153.465 269.547 155.677C269.547 157.889 271.719 159.683 274.398 159.683H503.098C505.777 159.683 507.949 157.889 507.949 155.677C507.949 153.465 505.777 151.671 503.098 151.671H274.398Z" fill="#E6E6E6"/>
</g>
</g>
</g>
<defs>
<clipPath id="clip0">
<rect width="845.724" height="704.031" fill="white"/>
</clipPath>
</defs>
</svg>
